<svg xmlns="http://www.w3.org/2000/svg" xmlns:xlink="http://www.w3.org/1999/xlink" version="1.1" x="0px" y="0px" viewBox="0 0 100 100" enable-background="new 0 0 100 100" xml:space="preserve"><g><path fill-rule="evenodd" clip-rule="evenodd" fill="#000000" d="M45.754,44.927c-0.114-0.017-0.23-0.04-0.326-0.007   c-0.254,0.091-0.618,0.286-0.449,0.535c0.179,0.267,0.459-0.093,0.672-0.214c0.065-0.035,0.087-0.154,0.113-0.262   c0.021-0.015,0.035-0.026,0.064-0.045c0.006-0.015,0.014-0.026,0.021-0.043c-0.021-0.003-0.041,0.002-0.062-0.003   C45.771,44.906,45.769,44.91,45.754,44.927z"></path><path fill-rule="evenodd" clip-rule="evenodd" fill="#000000" d="M43.208,48.347c0.011,0.002,0.021,0.002,0.031,0.004   c0.005-0.009,0.012-0.017,0.017-0.025l-0.045-0.005C43.211,48.33,43.208,48.334,43.208,48.347z"></path><path fill-rule="evenodd" clip-rule="evenodd" fill="#000000" d="M83.968,22.174c-4.209-1.235-8.148,2.874-10.519,5.795   c-1.286,1.587-2.308,3.379-3.599,4.951c-0.349,0.424-0.711,0.868-0.817,1.459c-0.257,0.895-0.655,1.71-1.313,2.386   c-0.496,0.262-0.654-0.138-0.861-0.439c-1.194-2.085-2.729-3.12-4.978-3.857c-0.896-0.292-2.035-0.283-2.935-0.002   c-1.169,0.366-1.866,1.804-3.156,1.837c-0.975,0.026-0.617-1.05-0.507-1.683c0.366-2.096-0.867-4.818-3.058-5.387   c-1.166-0.305-2.355-0.055-3.53-0.14c-0.583-0.043-1.183-0.079-0.745-0.938c2.196-4.445,4.163-8.976,5.156-13.868   c0.528-2.595,0.601-4.389-1.868-5.918c-1.749-1.084-4.229-1.294-5.867,0.172c-4.192,3.753-7.613,8.179-10.964,12.663   c-1.815,2.675-3.608,5.363-4.438,8.549c-1.335,3.522-3.174,6.832-4.497,10.348c-0.938,2.491-1.802,5.054-2.479,7.659   c-0.681,2.614-1.173,5.277-1.368,7.959c-0.083,1.151-0.088,2.308,0.026,3.457c0.116,1.18,0.523,2.248,0.732,3.396   c0.338,1.841-0.078,3.683-0.257,5.472c-0.146,1.474-0.316,3.51-2.586,3.793c-0.262-0.038-0.523-0.078-0.786-0.116   c-1.198-0.384-2.404-0.477-3.666-0.329c-2.129,0.248-1.811,1.312-0.279,2.411c1.086,0.775,2.192,1.524,3.282,2.298   c2.185,1.554,2.231,1.832,0.714,4.045c-0.434,0.631-0.987,1.252-0.593,2.07c0.298,0.613,0.938,0.649,1.504,0.871   c0.419,0.161,0.84,0.318,1.264,0.473c0.962,0.353,1.937,0.69,2.845,1.171c0.857,0.457,1.638,1.066,2.549,1.421   c0.985,0.383,1.99,0.568,2.959,1.03c1.859,0.883,3.751,1.685,5.642,2.498c2.731,1.173,5.464,2.344,8.196,3.515   c1.543,0.659,3.088,1.317,4.632,1.975c1.327,0.566,2.889,1.585,4.395,1.271c0.694-0.146,0.942-0.959,1.252-1.514   c0.475-0.845,0.948-1.691,1.423-2.538c0.297-0.531,2.036-0.353,2.546-0.381c1.178-0.066,2.353-0.193,3.525-0.31   c0.745-0.073,2.199,0.041,2.415-0.969c0.189-0.88-0.943-1.165-1.365-1.703c-0.452-0.578-0.805-1.047-1.44-1.433   c-0.641-0.388-1.346-0.689-1.884-1.223c-1.327-1.312-0.152-5.774,1.865-5.958c2.592-0.235,4.666-1.592,6.719-3.013   c3.054-1.655,5.997-3.381,8.633-5.765c3.215-2.903,6.296-5.725,7.283-10.15c0.629-2.43-0.202-4.949-1.385-7.069   c-0.448-0.804-0.918-1.605-1.473-2.344c-0.132-0.173-1.875-1.981-1.936-1.865c1.022-2.006,2.004-3.936,2.985-5.865   c1.213-1.567,1.675-3.533,2.614-5.248c0.772-1.406,1.424-3.364,1.654-4.961c0.122-0.856,0.302-1.706,0.505-2.546   C86.669,27.382,86.722,22.984,83.968,22.174z M57.741,34.839c2.679-2.22,5.646-0.813,7.609,1.102   c0.428,0.419,0.35,1.049,0.136,1.62c-0.336,0.904-0.986,1.559-1.656,2.206c-0.469,0.31-0.942,0.613-1.406,0.933   c-0.409,0.28-0.813,0.568-1.209,0.866c-0.393,0.3-0.842,0.563-1.095,1.17c1.081,0.015,1.59-0.744,2.353-0.895   c0.147,0.136,0.295,0.274,0.442,0.412c-1.036,0.999-2.383,1.594-3.563,2.491c0.646,0.528,1.071,0.212,1.491-0.026   c0.735-0.416,1.465-0.842,2.187-1.28c0.354-0.214,0.642-0.254,0.829,0.19c-0.562,0.442-1.103,0.914-1.687,1.323   c-0.979,0.683-2.522,1.133-2.846,2.034c-0.452,1.259-1.494,1.651-2.207,2.453c-1.058,1.189-1.788,2.43-1.609,4.025   c0.151,1.376-0.496,2.14-1.643,2.665c-0.388,0.179-0.749,0.412-1.12,0.626c-1.806,1.042-3.498,0.321-3.973-1.703   c-0.841-3.591,0.288-6.903,1.596-10.129c0.909-2.242,2.341-4.233,3.708-6.225C55.085,37.23,56.35,35.99,57.741,34.839z    M50.978,28.493c2.659,0.366,3.644,3.298,2.032,5.658c-0.851,1.246-2.182,2.034-3.17,3.245c0.827,0.604,1.135-0.724,1.817-0.487   c0.099,0.726-0.541,1.006-0.739,1.511c-1.534,1.085-3.067,2.172-4.854,3.438c1.829,0.034,2.727-1.312,4.032-1.691l-0.003,0.045   c0.014,1.328-1.18,1.749-1.927,2.494c-0.752,0.749-1.893,1.092-2.317,2.187c0.613,0.086,1.025-0.652,1.781-0.49   c-0.161,1.111-1.038,1.471-1.731,2.001c-0.866,0.664-2.074,0.859-2.644,1.923c0.253,0.028,0.507,0.057,0.76,0.085   c-1.204,1.756-3.07,2.729-4.893,2.478c-1.216-0.167-1.852-1.23-2.727-1.92c0.628-1.837-0.593-3.631-0.017-5.525   c1.194-3.938,2.831-7.573,5.894-10.445c0.77-0.721,1.439-1.551,2.138-2.346C46.178,28.641,48.507,28.15,50.978,28.493z    M23.604,70.029c0.034-0.076,0.249-0.121,0.358-0.095c0.216,0.055,0.381,0.219,0.272,0.456c-0.033,0.074-0.238,0.074-0.364,0.105   C23.654,70.41,23.495,70.265,23.604,70.029z M22.165,79.604c-0.197,0.06-0.425-0.062-0.31-0.309   c0.069-0.148,0.303-0.22,0.455-0.319c0.111,0.114,0.192,0.195,0.273,0.276C22.446,79.375,22.324,79.557,22.165,79.604z    M24.078,77.011c-0.414,0.252-0.822,0.159-1.156-0.182c-1.786-1.829-3.926-3.247-5.718-5.258c1.604,0.517,3.187,1.111,4.813,1.525   c1.658,0.421,2.928,1.612,4.704,2.026C26.046,76.239,24.949,76.475,24.078,77.011z M26.984,72.658   c-0.072,0.519-0.013,1.585-0.427,1.444c-1.844-0.633-6.911-2.488-9.113-3.606c2.392-0.225,6.457,0.766,8.307,0.756   C26.438,71.247,27.076,71.994,26.984,72.658z M28.76,78.383c-0.175-0.035-0.37-0.123-0.322-0.39   c0.04-0.224,0.221-0.354,0.445-0.343c0.244,0.012,0.396,0.19,0.373,0.421C29.23,78.3,29.029,78.388,28.76,78.383z M28.535,74.762   c0.05-0.247,0.264-0.29,0.482-0.222c0.175,0.053,0.233,0.203,0.112,0.336c-0.081,0.091-0.236,0.114-0.359,0.169   C28.687,74.95,28.52,74.838,28.535,74.762z M27.501,68.421c0.918-0.626,1.512-0.388,2.359,0.078   C28.94,69.063,28.359,68.635,27.501,68.421z M30.135,69.801c0.664-0.557,1.215-0.628,2.07-0.649   C31.581,69.905,31.026,69.96,30.135,69.801z M31.178,73.451c0.229-0.348,0.561-0.107,0.805,0.123   c0.305,0.157,0.609,0.314,0.914,0.469c0,0,0.057,0.069,0.057,0.071c-0.094,0.177-0.164,0.376-0.29,0.526   c-0.268,0.321-0.613,0.621-1.019,0.297c-0.305-0.242-0.1-0.618-0.012-0.935C31.309,73.955,30.892,73.889,31.178,73.451z    M31.262,76.88c-0.003-0.329,0.34-0.374,0.597-0.455c0.231-0.005,0.431,0.098,0.343,0.331c-0.056,0.147-0.28,0.269-0.453,0.323   C31.562,77.137,31.264,77.099,31.262,76.88z M31.381,79.763c0.854-0.637,1.798-0.966,2.903-0.747   C33.426,79.635,32.423,79.766,31.381,79.763z M35.937,74.55c-0.33-0.052-0.703,0.088-0.997-0.221   c0.267-0.598,0.758-0.788,1.341-0.609c0.392,0.119,0.15,0.433,0.057,0.669C36.203,74.44,36.07,74.495,35.937,74.55z M34.562,71.919   c0.88-0.26,1.765-1.368,2.634,0.017C36.32,71.745,35.438,72.509,34.562,71.919z M36.905,78.823c0.79-0.05,1.487-0.107,2.185-0.138   c1.168-0.05,0.885,0.754,0.608,1.271c-0.684,1.268-1.715,3.721-3.202,5.922C36.38,84.357,37.026,80.394,36.905,78.823z    M38.081,75.84c-0.2-0.255-0.046-0.495,0.028-0.74c0.578-0.076,1.137-0.528,1.908-0.053C39.437,75.654,38.622,75.457,38.081,75.84z    M40.298,75.954c0.029,0.045-0.104,0.254-0.203,0.302c-0.187,0.091-0.408,0.136-0.561-0.166c-0.023-0.109,0.042-0.22,0.206-0.267   C39.953,75.759,40.17,75.754,40.298,75.954z M40.993,82.633c-0.789,0.833-3.113,2.889-3.797,3.502   c1.017-2.234,3.202-5.924,3.427-6.997C40.969,78.974,42.467,81.079,40.993,82.633z M42.86,79.28   c-0.03,0.073-0.203,0.088-0.313,0.126c-0.069-0.103-0.21-0.219-0.194-0.307c0.044-0.245,0.246-0.293,0.432-0.16   C42.859,78.995,42.898,79.189,42.86,79.28z M43.977,75.699c-0.119,0.138-0.356,0.219-0.55,0.238   c-0.169,0.014-0.218-0.15-0.095-0.391c0.111-0.069,0.28-0.257,0.457-0.267C44.047,75.269,44.12,75.53,43.977,75.699z    M47.029,86.292c-0.141,0.321-0.35,0.593-0.749,0.535c-0.222-0.033-0.354-0.224-0.274-0.433c0.136-0.353,0.477-0.44,0.807-0.517   C47.08,85.916,47.117,86.09,47.029,86.292z M46.146,83.161c0.746-0.828,1.633-1.131,3.043-1.409   C48.062,82.818,47.127,83.115,46.146,83.161z M58.407,88.697c-1.855,0.015-3.706,0.053-5.557,0.262   c-1.716,0.193-1.674,0.091-2.088-1.562c-0.456-1.825,0.045-1.994,1.644-1.454c2.087,0.704,4.238,1.228,6.358,1.834   c0.317,0.091,0.733,0.072,0.764,0.571C59.262,88.8,58.805,88.695,58.407,88.697z M59.648,87.029   c-2.126-0.323-6.886-1.41-8.718-2.571C54.843,81.609,57.751,86.057,59.648,87.029z M50.931,79.456   c0.215-0.82,0.828-0.673,1.419-1.375C52.201,79.328,51.618,79.33,50.931,79.456z M81.712,54.921   c0.729,1.489,0.349,2.931,0.151,4.395c-0.19,1.42-0.392,2.853-1.956,3.545c-0.666,0.295-0.661,1.07-0.957,1.618   c-0.856,1.587-1.86,3-3.792,3.997c0.254-1.573,1.808-2.465,1.401-4.1c-1.221,0.618-1.549,1.761-2.08,2.72   c-0.486,0.878-0.852,1.646-2.077,1.882c-0.79,0.15-1.426,1.1-2.132,1.691c-0.23,0.909-0.775,1.794-1.632,1.89   c-2.977,0.328-4.59,2.857-6.988,4.085c-1.266,0.224-2.529,0.452-3.795,0.667c-1.418,0.24-2.801,0.273-4.229-0.148   c-1.07-0.316-2.182-0.537-3.365-0.485c-1.369,0.058-2.631-0.611-3.82-1.272c-1.935-1.075-3.904-2.101-5.751-3.312   c-2.931-1.922-6.073-3.464-9.066-5.27c-0.465-0.604-1.246,0.04-1.742-0.44c-0.465-0.442-1.066-0.442-1.646-0.514   c-0.314-0.555-0.819-1.047-1.39-1.06c-1.685-0.035-1.709-1.106-1.638-2.31c-0.28-1.033-0.946-2.006-0.459-3.146   c0.018-0.046,0.119-0.093,0.157-0.079c0.116,0.046,0.219,0.121,0.328,0.186c0.189,0.169,0.353,0.109,0.49-0.066   c0.088-0.116,0.051-0.23-0.09-0.331c-0.576-1.521-0.891-3.088-0.869-4.718c0.147-0.152,0.284-0.136,0.414,0.023   c0.25,0.583,0.539,1.138,1.336,1.771c-0.779-2.834-1.16-5.396-1.219-7.99c-0.057-2.538-0.515-5.142,0.843-7.545   c0.565,0.229,0.175,0.776,0.429,1.093c0.174,0.083,0.251,0.03,0.282-0.152c1.053-6.246,3.184-12.106,6.412-17.545   c1.63-2.742,2.995-5.643,4.968-8.182c2.189-2.818,4.702-5.334,7.301-7.754c1.082-1.009,2.419-1.813,4.082-1.116   c1.606,0.675,2.017,1.47,1.554,3.189c-0.073,0.275-0.185,0.539-0.278,0.808c-0.519,0.502-1.086,0.972-1.302,1.816   c0.658,0.183,1-0.143,1.344-0.459c0.755,1.294-0.363,2.031-0.878,2.948c-0.983,0.801-1.75,1.762-2.451,2.931   c0.697,0.049,1.167,0.081,1.636,0.113c0.328,0.853-0.373,1.287-0.776,1.813c-0.433,0.562-0.941,1.066-1.434,1.579   c-0.441,0.459-0.904,0.897-1.359,1.346c0.296,0.787,1.064-0.57,1.307,0.325c0.152,0.559-0.146,0.961-0.477,1.342   c-0.514,0.59-1.041,1.166-1.562,1.746c-0.783,0.595-1.586,1.173-2.128,1.958c0.638,0.729,1.134-0.806,1.641,0.155   c-2.682,2.869-5.235,5.831-7.221,9.248c-1.997,3.438-3.004,7.045-2.224,11.038c0.232,1.188,0.936,2.072,1.721,2.897   c0.557,0.586,1.229,0.743,2.118,0.684c2.93-0.195,5.056-1.756,6.992-3.731c0.78-0.797,1.387-1.782,2.455-2.382   c0.236,1.1-0.19,1.918-0.562,2.774c-0.916,2.113-0.979,4.24-0.229,6.455c0.352,1.04,1.102,1.623,1.945,2.435   c-0.635,0.361-1.193,0.728-1.792,1.011c-1.503,0.712-2.753,1.764-3.953,2.887c-0.329,0.307-0.596,0.656-0.18,1.082   c0.453,0.465,0.756,0.048,1.063-0.224c0.265-0.23,0.51-0.48,0.762-0.723c1.07,0.043,2.139,0.104,3.21,0.121   c1.095,0.017,2.087,0.747,3.217,0.585c0.008-0.393-0.179-0.54-0.381-0.585c-1.038-0.23-1.979-0.821-3.074-0.845   c-0.138-0.038-0.292-0.05-0.409-0.121c-0.364-0.224-0.048-0.338,0.107-0.353c1.07-0.1,2.137-0.068,3.197,0.124   c0.692,0.126,1.395,0.214,2.196,0.333c-0.471-0.997-1.577-0.604-2.175-1.38c1.504-0.852,2.959,0.245,4.44-0.074   c-0.104-0.528-0.859-0.454-0.933-0.973c0.395-0.276,0.83-0.091,1.246-0.101c1.295,0.457,2.479,1.285,3.942,1.164l1.825-0.467   c2.216-0.025,4.383,0.621,6.608,0.46c0.685-0.048,1.411,0.03,1.803-0.641c-0.11-0.497-0.418-0.482-0.686-0.433   c-2.54,0.466-4.973-0.152-7.404-0.73c-1.717-0.412-2.912-1.978-4.744-2.185c-0.197-0.023-0.418-0.381-0.523-0.626   c-0.727-1.696-0.091-4.007,1.278-5.268c1.481-1.363,3.259-2.061,5.16-2.43c3.026-0.587,6.064-0.835,9.133-0.116   C76.692,48.479,79.762,50.949,81.712,54.921z M83.98,30.299c-0.35,0.593-0.688,1.194-1.054,1.777   c-0.341,0.54-0.05,0.902,0.313,1.257c-0.47,0.701-0.939,1.406-1.41,2.11c-0.995,1.073-1.989,2.146-2.984,3.219   c1.235-0.06,1.711-1.057,2.581-1.501l-0.007,0.052c0.002,0,0.003,0,0.004,0c0.048,0.481-0.286,0.805-0.506,1.176   c-0.613,0.568-1.239,1.123-1.837,1.704c-0.542,0.527-1.451,0.651-1.909,1.622c0.979-0.076,1.51-0.55,2.104-0.875l0.076,0.737   c-0.747,0.959-1.494,1.918-2.241,2.877c-0.856,0.578-1.713,1.156-2.57,1.734c-0.296,0.149-0.591,0.302-0.886,0.454   c-1.341-0.183-2.681-0.364-4.021-0.547c-1.753-0.238-3.511-0.341-5.694,0.035c1.863-2.774,2.566-5.736,4.384-8.115   c0.488-0.638,0.778-1.34,1.184-1.994c1.98-3.198,4.016-6.36,6.552-9.161c1.118-1.235,2.448-2.144,3.919-2.908   c1.801-0.935,3.76-0.169,4.436,1.761C84.977,27.327,84.379,28.795,83.98,30.299z"></path><path fill-rule="evenodd" clip-rule="evenodd" fill="#000000" d="M42.323,48.549c-0.005,0.002,0.136,0.216,0.186,0.209   c0.28-0.05,0.709,0.104,0.699-0.411C42.875,48.229,42.577,48.304,42.323,48.549z"></path></g></svg>